<svg width="861" height="308" viewBox="0 0 861 308" fill="none" xmlns="http://www.w3.org/2000/svg">
<path d="M9 304C3.13333 304 0.2 301.733 0.2 297.2V296C0.2 292.8 3.13333 288.667 9 283.6C14.8667 278.267 19.1333 272.267 21.8 265.6L101.4 61.2C103.267 55.6 101.267 49.2 95.4 42C89.5333 34.5333 86.6 29.8667 86.6 28V26.4C86.6 22.1333 89.4 20 95 20H172.2C177.8 20 180.6 22.1333 180.6 26.4V28C180.6 30.1333 178.867 32.8 175.4 36C171.933 39.2 169 42.8 166.6 46.8C164.467 50.8 164.333 55.0667 166.2 59.6L255.4 265.6C258.067 272 262.333 277.867 268.2 283.2C274.333 288.533 277.4 292.8 277.4 296V297.2C277.4 301.733 274.333 304 268.2 304H183C176.867 304 173.8 301.733 173.8 297.2V296C173.8 293.333 175.533 290.667 179 288C182.733 285.067 185.933 281.867 188.6 278.4C191.533 274.667 192.067 270.4 190.2 265.6L177.4 233.6H66.6L54.6 265.6C52.7333 270.4 53.1333 274.667 55.8 278.4C58.4667 281.867 61.5333 285.067 65 288C68.7333 290.667 70.6 293.333 70.6 296V297.2C70.6 301.733 67.5333 304 61.4 304H9ZM75.8 207.6H168.6L121 84.8L75.8 207.6ZM295.944 304C289.81 304 286.744 301.733 286.744 297.2V295.6C286.744 292.933 289.277 288.8 294.344 283.2C299.677 277.6 302.344 271.733 302.344 265.6V68.8C302.344 61.8667 299.677 55.6 294.344 50C289.277 44.4 286.744 40.5333 286.744 38.4V36.8C286.744 33.6 289.41 30.9333 294.744 28.8L345.144 3.99998C350.477 1.86665 354.477 1.59999 357.144 3.19999C360.077 4.79998 361.544 7.46665 361.544 11.2V265.6C361.544 271.733 364.344 277.6 369.944 283.2C375.81 288.8 378.744 292.933 378.744 295.6V297.2C378.744 301.733 375.677 304 369.544 304H295.944ZM613.253 128.8C613.253 130.4 610.453 134.267 604.853 140.4C599.253 146.533 596.453 153.333 596.453 160.8V265.6C596.453 271.733 598.986 277.733 604.053 283.6C609.386 289.2 612.053 293.333 612.053 296V297.2C612.053 301.733 609.386 304 604.053 304H554.853C552.186 304 549.92 303.2 548.053 301.6C546.453 300 545.653 297.867 545.653 295.2V285.6C533.12 300.533 515.52 308 492.853 308C466.986 308 444.853 299.067 426.453 281.2C408.053 263.067 398.853 238.533 398.853 207.6C398.853 178.533 408.053 154.667 426.453 136C444.853 117.333 467.12 108 493.253 108C514.586 108 532.053 114.8 545.653 128.4V120.4C545.653 116.667 547.253 113.867 550.453 112C553.653 109.867 557.786 109.333 562.853 110.4L604.853 117.6C610.453 118.667 613.253 122 613.253 127.6V128.8ZM506.053 290.8C515.12 290.8 522.986 287.067 529.653 279.6C536.586 271.867 540.053 261.333 540.053 248V177.6C540.053 163.467 535.653 151.2 526.853 140.8C518.32 130.4 508.186 125.2 496.453 125.2C484.186 125.2 474.453 130.4 467.253 140.8C460.053 150.933 456.32 165.333 456.053 184C455.52 199.2 456.986 214.8 460.453 230.8C464.186 246.8 470.053 260.8 478.053 272.8C486.32 284.533 495.653 290.533 506.053 290.8ZM845.953 265.2C846.486 271.6 849.02 277.6 853.553 283.2C858.086 288.8 860.353 293.067 860.353 296V297.6C860.353 302.133 857.286 304.4 851.153 304.4H781.953C775.82 304.4 772.753 302.133 772.753 297.6V296C772.753 293.333 775.153 289.2 779.953 283.6C785.02 278 787.42 271.867 787.153 265.2L783.153 191.2C781.286 150.933 769.686 130.8 748.353 130.8C737.686 130.8 729.286 134.8 723.153 142.8C717.286 150.8 714.353 161.467 714.353 174.8V265.6C714.353 272 717.153 278 722.753 283.6C728.62 289.2 731.553 293.333 731.553 296V297.6C731.553 302.133 728.486 304.4 722.353 304.4H647.953C641.82 304.4 638.753 302.133 638.753 297.6V296C638.753 293.333 641.553 289.2 647.153 283.6C653.02 278 655.953 272 655.953 265.6V172.4C655.953 168.4 654.886 164.8 652.753 161.6C650.886 158.4 648.62 156.133 645.953 154.8C643.553 153.2 641.286 151.333 639.153 149.2C637.286 147.067 636.353 144.933 636.353 142.8V141.2C636.353 138.267 639.02 135.467 644.353 132.8L691.953 109.6C696.486 107.467 699.82 107.333 701.953 109.2C704.353 110.8 705.553 113.733 705.553 118V140.4C717.02 118.8 736.753 108 764.753 108C785.02 108 802.22 114.8 816.353 128.4C830.753 142 839.02 163.6 841.153 193.2L845.953 265.2Z" fill="white"/>
</svg>
