<svg width="692" height="369" viewBox="0 0 692 369" fill="none" xmlns="http://www.w3.org/2000/svg">
<path d="M119 295C83.5333 295 54.8667 287.533 33 272.6C11.4 257.4 0.6 240.867 0.6 223C0.6 215.533 2.6 209.667 6.6 205.4C10.6 200.867 16.6 198.6 24.6 198.6C31.8 198.867 37.9333 201.533 43 206.6C48.3333 211.667 52.8667 217.8 56.6 225C60.6 232.2 64.8667 239.4 69.4 246.6C73.9333 253.533 80.6 259.533 89.4 264.6C98.2 269.667 108.867 272.2 121.4 272.2C135.533 272.2 146.733 268.6 155 261.4C163.533 253.933 167.8 244.067 167.8 231.8C167.8 220.333 164.733 210.867 158.6 203.4C152.733 195.933 145 190.333 135.4 186.6C126.067 182.6 115.667 179.267 104.2 176.6C92.7333 173.667 81.2667 170.333 69.8 166.6C58.3333 162.867 47.8 158.2 38.2 152.6C28.6 146.733 20.7333 138.333 14.6 127.4C8.73333 116.2 5.8 102.6 5.8 86.6C5.8 62.0666 15.2667 42.0667 34.2 26.6C53.4 11.1333 79.2667 3.39998 111.8 3.39998C143.8 3.39998 170.333 10.6 191.4 25C212.733 39.1333 223.267 55 223 72.6C223 89.1333 214.467 97.4 197.4 97.4C189.4 97.4 182.733 95 177.4 90.2C172.333 85.1333 168.067 79.1333 164.6 72.2C161.4 65.2667 157.933 58.3333 154.2 51.4C150.467 44.4667 144.867 38.6 137.4 33.8C130.2 28.7333 121.267 26.2 110.6 26.2C95.9333 26.2 84.7333 30.0666 77 37.8C69.2667 45.5333 65.4 55.4 65.4 67.4C65.4 78.8667 68.3333 88.4667 74.2 96.2C80.3333 103.933 88.0667 109.8 97.4 113.8C107 117.8 117.533 121.4 129 124.6C140.467 127.533 151.933 131 163.4 135C174.867 138.733 185.267 143.4 194.6 149C204.2 154.6 211.933 162.867 217.8 173.8C223.933 184.733 227 197.933 227 213.4C227 238.467 216.6 258.333 195.8 273C175 287.667 149.4 295 119 295ZM463.409 115.8C463.409 117.4 460.609 121.267 455.009 127.4C449.409 133.533 446.609 140.333 446.609 147.8V252.6C446.609 258.733 449.143 264.733 454.209 270.6C459.543 276.2 462.209 280.333 462.209 283V284.2C462.209 288.733 459.543 291 454.209 291H405.009C402.343 291 400.076 290.2 398.209 288.6C396.609 287 395.809 284.867 395.809 282.2V272.6C383.276 287.533 365.676 295 343.009 295C317.143 295 295.009 286.067 276.609 268.2C258.209 250.067 249.009 225.533 249.009 194.6C249.009 165.533 258.209 141.667 276.609 123C295.009 104.333 317.276 95 343.409 95C364.743 95 382.209 101.8 395.809 115.4V107.4C395.809 103.667 397.409 100.867 400.609 99C403.809 96.8667 407.943 96.3333 413.009 97.4L455.009 104.6C460.609 105.667 463.409 109 463.409 114.6V115.8ZM356.209 277.8C365.276 277.8 373.143 274.067 379.809 266.6C386.743 258.867 390.209 248.333 390.209 235V164.6C390.209 150.467 385.809 138.2 377.009 127.8C368.476 117.4 358.343 112.2 346.609 112.2C334.343 112.2 324.609 117.4 317.409 127.8C310.209 137.933 306.476 152.333 306.209 171C305.676 186.2 307.143 201.8 310.609 217.8C314.343 233.8 320.209 247.8 328.209 259.8C336.476 271.533 345.809 277.533 356.209 277.8ZM560.109 61C552.909 67.4 543.443 70.6 531.709 70.6C519.976 70.6 510.509 67.4 503.309 61C496.109 54.3333 492.509 45.8 492.509 35.4C492.509 25.2666 496.109 17 503.309 10.6C510.509 3.93333 519.976 0.599996 531.709 0.599996C543.443 0.599996 552.909 3.93333 560.109 10.6C567.309 17 570.909 25.2666 570.909 35.4C570.909 45.8 567.309 54.3333 560.109 61ZM499.709 368.6C482.376 368.6 468.509 365.133 458.109 358.2C447.443 351.533 442.109 341.933 442.109 329.4C442.109 322.2 444.509 316.333 449.309 311.8C454.109 307.267 460.109 305 467.309 305C475.309 305 481.443 307.267 485.709 311.8C489.976 316.333 492.509 321.4 493.309 327C494.376 332.6 496.243 337.667 498.909 342.2C501.843 346.733 505.976 349 511.309 349C516.109 349 519.976 347.267 522.909 343.8C525.843 340.333 527.309 335.933 527.309 330.6C527.309 321.267 523.709 311.267 516.509 300.6C509.309 290.2 505.709 281.4 505.709 274.2V161.8C505.709 155.133 503.176 149 498.109 143.4C493.043 137.533 490.509 133.4 490.509 131V129.8C490.509 127.133 493.176 124.333 498.509 121.4L549.709 96.6C554.776 94.4667 558.643 94.3333 561.309 96.2C564.243 97.8 565.709 100.6 565.709 104.6V292.6C565.709 311.8 561.576 328.067 553.309 341.4C540.776 359.533 522.909 368.6 499.709 368.6ZM673.056 61C666.123 67.4 656.79 70.6 645.056 70.6C633.323 70.6 623.723 67.4 616.256 61C609.056 54.3333 605.456 45.8 605.456 35.4C605.456 25.2666 609.056 17 616.256 10.6C623.723 3.93333 633.323 0.599996 645.056 0.599996C656.79 0.599996 666.123 3.93333 673.056 10.6C680.256 17 683.856 25.2666 683.856 35.4C683.856 45.8 680.256 54.3333 673.056 61ZM608.656 291C602.79 291 599.856 288.733 599.856 284.2V282.6C599.856 279.933 602.39 275.8 607.456 270.2C612.523 264.6 615.056 258.6 615.056 252.2V161.8C615.056 155.133 612.523 148.867 607.456 143C602.39 137.133 599.856 133.133 599.856 131V129.8C599.856 127.133 602.656 124.333 608.256 121.4L658.256 96.6C663.323 94.4667 667.323 94.3333 670.256 96.2C673.19 97.8 674.656 100.6 674.656 104.6V252.2C674.656 258.6 677.456 264.6 683.056 270.2C688.656 275.8 691.456 279.933 691.456 282.6V284.2C691.456 288.733 688.39 291 682.256 291H608.656Z" fill="white"/>
</svg>
